<svg xmlns="http://www.w3.org/2000/svg" x="0px" y="0px"
width="50" height="50"
viewBox="0 0 50 50"
style=" fill:#000000;"><path d="M 6.6992188 4 C 5.2066261 4 4 5.2066262 4 6.6992188 L 4 43.300781 C 4 44.40234 4.7546537 45.165751 5.6992188 45.585938 L 5.6992188 46.099609 L 43.300781 46.099609 C 44.793374 46.099609 46 44.892983 46 43.400391 L 46 6.6992188 C 46 5.2066261 44.867057 4 43.400391 4 L 6.6992188 4 z M 6.6992188 6 L 43.400391 6 C 43.533724 6 44 6.3918113 44 6.6992188 L 44 43.400391 C 44 43.707798 43.608189 44.099609 43.300781 44.099609 L 7.6992188 44.099609 L 7.6992188 44 L 6.6992188 44 C 6.3918112 44 6 43.608189 6 43.300781 L 6 6.6992188 C 6 6.3918112 6.3918113 6 6.6992188 6 z M 23 23 L 23 35.599609 C 23 37.499609 22.3 38 21 38 C 19.6 38 18.699609 37.199609 18.099609 36.099609 L 15 38 C 15.9 39.9 18.099219 42 21.199219 42 C 24.699219 42 27 40.199219 27 36.199219 L 27 23 L 23 23 z M 35.400391 23.099609 C 32.000391 23.099609 29.800781 25.199609 29.800781 28.099609 C 29.800781 31.199609 31.600391 32.600781 34.400391 33.800781 C 36.000391 34.400781 38.2 35.099219 38 36.699219 C 38 37.799219 37.199609 38.599609 35.599609 38.599609 C 33.699609 38.599609 32.8 37.3 32 36 L 28.900391 38.099609 C 30.000391 40.299609 32.099609 42.099609 35.599609 42.099609 C 39.199609 42.099609 41.900391 40.200781 41.900391 36.800781 C 42.000391 33.300781 39.100781 31.700391 35.800781 30.400391 C 34.200781 29.700391 33.5 29.199609 33.5 28.099609 C 33.5 27.199609 34.200781 26.5 35.300781 26.5 C 36.400781 26.5 37.100781 26.899609 37.800781 28.099609 L 40.800781 26.199219 C 39.600781 23.899219 37.800391 23.099609 35.400391 23.099609 z"></path></svg>